<mxfile host="app.diagrams.net" agent="Mozilla/5.0 (Windows NT 10.0; Win64; x64) AppleWebKit/537.36 (KHTML, like Gecko) Chrome/141.0.0.0 Safari/537.36" version="28.2.8">
  <diagram name="Page-1" id="iUzFDa9rtnmPMNHuukGx">
    <mxGraphModel dx="2066" dy="1109" grid="1" gridSize="10" guides="1" tooltips="1" connect="1" arrows="1" fold="1" page="1" pageScale="1" pageWidth="850" pageHeight="1100" math="0" shadow="0">
      <root>
        <mxCell id="0" />
        <mxCell id="1" parent="0" />
        <mxCell id="v8XyfUuHhC3--_uxYwLa-2" style="edgeStyle=orthogonalEdgeStyle;rounded=0;orthogonalLoop=1;jettySize=auto;html=1;" edge="1" parent="1" source="v8XyfUuHhC3--_uxYwLa-1" target="v8XyfUuHhC3--_uxYwLa-3">
          <mxGeometry relative="1" as="geometry">
            <mxPoint x="425" y="280" as="targetPoint" />
          </mxGeometry>
        </mxCell>
        <mxCell id="v8XyfUuHhC3--_uxYwLa-1" value="Movie Rating App" style="whiteSpace=wrap;html=1;aspect=fixed;" vertex="1" parent="1">
          <mxGeometry x="345" y="50" width="160" height="160" as="geometry" />
        </mxCell>
        <mxCell id="v8XyfUuHhC3--_uxYwLa-4" style="edgeStyle=orthogonalEdgeStyle;rounded=0;orthogonalLoop=1;jettySize=auto;html=1;" edge="1" parent="1" source="v8XyfUuHhC3--_uxYwLa-3" target="v8XyfUuHhC3--_uxYwLa-5">
          <mxGeometry relative="1" as="geometry">
            <mxPoint x="425" y="350" as="targetPoint" />
          </mxGeometry>
        </mxCell>
        <mxCell id="v8XyfUuHhC3--_uxYwLa-6" style="edgeStyle=orthogonalEdgeStyle;rounded=0;orthogonalLoop=1;jettySize=auto;html=1;" edge="1" parent="1" source="v8XyfUuHhC3--_uxYwLa-3" target="v8XyfUuHhC3--_uxYwLa-7">
          <mxGeometry relative="1" as="geometry">
            <mxPoint x="425" y="350" as="targetPoint" />
          </mxGeometry>
        </mxCell>
        <mxCell id="v8XyfUuHhC3--_uxYwLa-12" style="edgeStyle=orthogonalEdgeStyle;rounded=0;orthogonalLoop=1;jettySize=auto;html=1;" edge="1" parent="1" source="v8XyfUuHhC3--_uxYwLa-3" target="v8XyfUuHhC3--_uxYwLa-13">
          <mxGeometry relative="1" as="geometry">
            <mxPoint x="170" y="240" as="targetPoint" />
          </mxGeometry>
        </mxCell>
        <mxCell id="v8XyfUuHhC3--_uxYwLa-3" value="Week 1" style="rounded=0;whiteSpace=wrap;html=1;" vertex="1" parent="1">
          <mxGeometry x="365" y="250" width="120" height="60" as="geometry" />
        </mxCell>
        <mxCell id="v8XyfUuHhC3--_uxYwLa-5" value="Create a menu with an add_movie and list_movie function." style="rounded=0;whiteSpace=wrap;html=1;" vertex="1" parent="1">
          <mxGeometry x="570" y="270" width="120" height="60" as="geometry" />
        </mxCell>
        <mxCell id="v8XyfUuHhC3--_uxYwLa-8" style="edgeStyle=orthogonalEdgeStyle;rounded=0;orthogonalLoop=1;jettySize=auto;html=1;" edge="1" parent="1" source="v8XyfUuHhC3--_uxYwLa-7" target="v8XyfUuHhC3--_uxYwLa-9">
          <mxGeometry relative="1" as="geometry">
            <mxPoint x="310" y="350" as="targetPoint" />
          </mxGeometry>
        </mxCell>
        <mxCell id="v8XyfUuHhC3--_uxYwLa-10" style="edgeStyle=orthogonalEdgeStyle;rounded=0;orthogonalLoop=1;jettySize=auto;html=1;" edge="1" parent="1" source="v8XyfUuHhC3--_uxYwLa-7" target="v8XyfUuHhC3--_uxYwLa-11">
          <mxGeometry relative="1" as="geometry">
            <mxPoint x="520" y="350" as="targetPoint" />
          </mxGeometry>
        </mxCell>
        <mxCell id="v8XyfUuHhC3--_uxYwLa-14" style="edgeStyle=orthogonalEdgeStyle;rounded=0;orthogonalLoop=1;jettySize=auto;html=1;" edge="1" parent="1" source="v8XyfUuHhC3--_uxYwLa-7" target="v8XyfUuHhC3--_uxYwLa-15">
          <mxGeometry relative="1" as="geometry">
            <mxPoint x="425" y="430" as="targetPoint" />
          </mxGeometry>
        </mxCell>
        <mxCell id="v8XyfUuHhC3--_uxYwLa-7" value="Week 2" style="rounded=0;whiteSpace=wrap;html=1;" vertex="1" parent="1">
          <mxGeometry x="365" y="350" width="120" height="60" as="geometry" />
        </mxCell>
        <mxCell id="v8XyfUuHhC3--_uxYwLa-9" value="Add edit_movie and delete_movie functions." style="rounded=1;whiteSpace=wrap;html=1;" vertex="1" parent="1">
          <mxGeometry x="180" y="380" width="120" height="60" as="geometry" />
        </mxCell>
        <mxCell id="v8XyfUuHhC3--_uxYwLa-11" value="Make the menu look cleaner." style="rounded=1;whiteSpace=wrap;html=1;" vertex="1" parent="1">
          <mxGeometry x="550" y="390" width="120" height="60" as="geometry" />
        </mxCell>
        <mxCell id="v8XyfUuHhC3--_uxYwLa-13" value="Make sure to modularize the work per week to properly format and organize the project" style="rounded=1;whiteSpace=wrap;html=1;" vertex="1" parent="1">
          <mxGeometry x="150" y="250" width="150" height="90" as="geometry" />
        </mxCell>
        <mxCell id="v8XyfUuHhC3--_uxYwLa-16" style="edgeStyle=orthogonalEdgeStyle;rounded=0;orthogonalLoop=1;jettySize=auto;html=1;" edge="1" parent="1" source="v8XyfUuHhC3--_uxYwLa-15" target="v8XyfUuHhC3--_uxYwLa-17">
          <mxGeometry relative="1" as="geometry">
            <mxPoint x="290" y="530" as="targetPoint" />
          </mxGeometry>
        </mxCell>
        <mxCell id="v8XyfUuHhC3--_uxYwLa-18" style="edgeStyle=orthogonalEdgeStyle;rounded=0;orthogonalLoop=1;jettySize=auto;html=1;" edge="1" parent="1" source="v8XyfUuHhC3--_uxYwLa-15" target="v8XyfUuHhC3--_uxYwLa-19">
          <mxGeometry relative="1" as="geometry">
            <mxPoint x="540" y="530" as="targetPoint" />
          </mxGeometry>
        </mxCell>
        <mxCell id="v8XyfUuHhC3--_uxYwLa-22" style="edgeStyle=orthogonalEdgeStyle;rounded=0;orthogonalLoop=1;jettySize=auto;html=1;" edge="1" parent="1" source="v8XyfUuHhC3--_uxYwLa-15" target="v8XyfUuHhC3--_uxYwLa-23">
          <mxGeometry relative="1" as="geometry">
            <mxPoint x="425" y="610" as="targetPoint" />
          </mxGeometry>
        </mxCell>
        <mxCell id="v8XyfUuHhC3--_uxYwLa-15" value="Week 3" style="rounded=0;whiteSpace=wrap;html=1;" vertex="1" parent="1">
          <mxGeometry x="365" y="480" width="120" height="60" as="geometry" />
        </mxCell>
        <mxCell id="v8XyfUuHhC3--_uxYwLa-17" value="Introduce file handling" style="rounded=1;whiteSpace=wrap;html=1;" vertex="1" parent="1">
          <mxGeometry x="180" y="500" width="120" height="60" as="geometry" />
        </mxCell>
        <mxCell id="v8XyfUuHhC3--_uxYwLa-20" style="edgeStyle=orthogonalEdgeStyle;rounded=0;orthogonalLoop=1;jettySize=auto;html=1;" edge="1" parent="1" source="v8XyfUuHhC3--_uxYwLa-19" target="v8XyfUuHhC3--_uxYwLa-21">
          <mxGeometry relative="1" as="geometry">
            <mxPoint x="620" y="610" as="targetPoint" />
          </mxGeometry>
        </mxCell>
        <mxCell id="v8XyfUuHhC3--_uxYwLa-19" value="add the load_movies and save_movies functions" style="rounded=0;whiteSpace=wrap;html=1;" vertex="1" parent="1">
          <mxGeometry x="560" y="500" width="120" height="60" as="geometry" />
        </mxCell>
        <mxCell id="v8XyfUuHhC3--_uxYwLa-21" value="call load_movies at the start of the app, and save_movies when the user exits." style="rounded=0;whiteSpace=wrap;html=1;" vertex="1" parent="1">
          <mxGeometry x="560" y="580" width="120" height="60" as="geometry" />
        </mxCell>
        <mxCell id="v8XyfUuHhC3--_uxYwLa-24" style="edgeStyle=orthogonalEdgeStyle;rounded=0;orthogonalLoop=1;jettySize=auto;html=1;" edge="1" parent="1" source="v8XyfUuHhC3--_uxYwLa-23" target="v8XyfUuHhC3--_uxYwLa-25">
          <mxGeometry relative="1" as="geometry">
            <mxPoint x="425" y="690" as="targetPoint" />
          </mxGeometry>
        </mxCell>
        <mxCell id="v8XyfUuHhC3--_uxYwLa-23" value="Test the app" style="rounded=0;whiteSpace=wrap;html=1;" vertex="1" parent="1">
          <mxGeometry x="365" y="580" width="120" height="60" as="geometry" />
        </mxCell>
        <mxCell id="v8XyfUuHhC3--_uxYwLa-26" style="edgeStyle=orthogonalEdgeStyle;rounded=0;orthogonalLoop=1;jettySize=auto;html=1;" edge="1" parent="1" source="v8XyfUuHhC3--_uxYwLa-25" target="v8XyfUuHhC3--_uxYwLa-27">
          <mxGeometry relative="1" as="geometry">
            <mxPoint x="425" y="770" as="targetPoint" />
          </mxGeometry>
        </mxCell>
        <mxCell id="v8XyfUuHhC3--_uxYwLa-25" value="Final Polish" style="rounded=0;whiteSpace=wrap;html=1;" vertex="1" parent="1">
          <mxGeometry x="365" y="660" width="120" height="60" as="geometry" />
        </mxCell>
        <mxCell id="v8XyfUuHhC3--_uxYwLa-27" value="Completed Project" style="rounded=0;whiteSpace=wrap;html=1;" vertex="1" parent="1">
          <mxGeometry x="365" y="740" width="120" height="60" as="geometry" />
        </mxCell>
      </root>
    </mxGraphModel>
  </diagram>
</mxfile>
